dataset
version=1
nRows=28
nColumns=39
inDegrees=no
endheader
time	sternoclavicular_r2	sternoclavicular_r3	unrotscap_r3	unrotscap_r2	acromioclavicular_r2	acromioclavicular_r3	acromioclavicular_r1	unrothum_r1	unrothum_r3	unrothum_r2	elv_angle	shoulder_elv	shoulder1_r2	shoulder_rot	elbow_flexion	pro_sup	deviation	flexion	cmc_abduction	cmc_flexion	mp_flexion	ip_flexion	mcp2_flexion	mcp2_abduction	pm2_flexion	md2_flexion	mcp3_flexion	mcp3_abduction	pm3_flexion	md3_flexion	mcp4_flexion	mcp4_abduction	pm4_flexion	md4_flexion	mcp5_flexion	mcp5_abduction	pm5_flexion	md5_flexion
3.050000	-0.031974	-0.287657	0.110572	0.198780	0.182345	0.086759	-0.031216	0.027907	0.064976	0.154625	0.160712	0.027437	0.146525	0.146525	1.635571	1.288344	0.000000	0.000000	0.000000	0.000000	0.000000	0.000000	0.000000	0.000000	0.000000	0.000000	0.000000	0.000000	0.000000	0.000000	0.000000	0.000000	0.000000	0.000000	0.000000	0.000000	0.000000	0.000000
3.055000	-0.032005	-0.287653	0.110605	0.198822	0.182339	0.087005	-0.031152	0.027833	0.065292	0.154637	0.160800	0.027437	0.146525	0.146525	1.635553	1.288346	0.000000	0.000000	0.000000	0.000000	0.000000	0.000000	0.000000	0.000000	0.000000	0.000000	0.000000	0.000000	0.000000	0.000000	0.000000	0.000000	0.000000	0.000000	0.000000	0.000000	0.000000	0.000000
3.060000	-0.032037	-0.287649	0.110640	0.198862	0.182330	0.087260	-0.031086	0.027759	0.065618	0.154646	0.160888	0.027437	0.146525	0.146525	1.635532	1.288348	0.000000	0.000000	0.000000	0.000000	0.000000	0.000000	0.000000	0.000000	0.000000	0.000000	0.000000	0.000000	0.000000	0.000000	0.000000	0.000000	0.000000	0.000000	0.000000	0.000000	0.000000	0.000000
3.065000	-0.032070	-0.287644	0.110675	0.198901	0.182318	0.087524	-0.031016	0.027685	0.065954	0.154651	0.160976	0.027437	0.146525	0.146525	1.635509	1.288350	0.000000	0.000000	0.000000	0.000000	0.000000	0.000000	0.000000	0.000000	0.000000	0.000000	0.000000	0.000000	0.000000	0.000000	0.000000	0.000000	0.000000	0.000000	0.000000	0.000000	0.000000	0.000000
3.070000	-0.032104	-0.287640	0.110711	0.198938	0.182302	0.087798	-0.030944	0.027610	0.066300	0.154653	0.161063	0.027437	0.146525	0.146525	1.635484	1.288352	0.000000	0.000000	0.000000	0.000000	0.000000	0.000000	0.000000	0.000000	0.000000	0.000000	0.000000	0.000000	0.000000	0.000000	0.000000	0.000000	0.000000	0.000000	0.000000	0.000000	0.000000	0.000000
3.075000	-0.032138	-0.287635	0.110748	0.198973	0.182282	0.088080	-0.030869	0.027536	0.066656	0.154651	0.161150	0.027437	0.146525	0.146525	1.635457	1.288354	0.000000	0.000000	0.000000	0.000000	0.000000	0.000000	0.000000	0.000000	0.000000	0.000000	0.000000	0.000000	0.000000	0.000000	0.000000	0.000000	0.000000	0.000000	0.000000	0.000000	0.000000	0.000000
3.080000	-0.032174	-0.287631	0.110786	0.199006	0.182259	0.088372	-0.030791	0.027461	0.067020	0.154645	0.161236	0.027437	0.146525	0.146525	1.635428	1.288356	0.000000	0.000000	0.000000	0.000000	0.000000	0.000000	0.000000	0.000000	0.000000	0.000000	0.000000	0.000000	0.000000	0.000000	0.000000	0.000000	0.000000	0.000000	0.000000	0.000000	0.000000	0.000000
3.085000	-0.032209	-0.287627	0.110826	0.199038	0.182232	0.088672	-0.030711	0.027386	0.067394	0.154636	0.161321	0.027437	0.146525	0.146525	1.635398	1.288358	0.000000	0.000000	0.000000	0.000000	0.000000	0.000000	0.000000	0.000000	0.000000	0.000000	0.000000	0.000000	0.000000	0.000000	0.000000	0.000000	0.000000	0.000000	0.000000	0.000000	0.000000	0.000000
3.090000	-0.032245	-0.287623	0.110866	0.199066	0.182201	0.088980	-0.030629	0.027310	0.067776	0.154622	0.161404	0.027437	0.146525	0.146525	1.635367	1.288360	0.000000	0.000000	0.000000	0.000000	0.000000	0.000000	0.000000	0.000000	0.000000	0.000000	0.000000	0.000000	0.000000	0.000000	0.000000	0.000000	0.000000	0.000000	0.000000	0.000000	0.000000	0.000000
3.095000	-0.032282	-0.287619	0.110908	0.199092	0.182165	0.089297	-0.030546	0.027233	0.068166	0.154605	0.161485	0.027437	0.146525	0.146525	1.635335	1.288362	0.000000	0.000000	0.000000	0.000000	0.000000	0.000000	0.000000	0.000000	0.000000	0.000000	0.000000	0.000000	0.000000	0.000000	0.000000	0.000000	0.000000	0.000000	0.000000	0.000000	0.000000	0.000000
3.100000	-0.032319	-0.287616	0.110951	0.199116	0.182126	0.089621	-0.030460	0.027155	0.068563	0.154583	0.161565	0.027437	0.146525	0.146525	1.635303	1.288364	0.000000	0.000000	0.000000	0.000000	0.000000	0.000000	0.000000	0.000000	0.000000	0.000000	0.000000	0.000000	0.000000	0.000000	0.000000	0.000000	0.000000	0.000000	0.000000	0.000000	0.000000	0.000000
3.105000	-0.032357	-0.287613	0.110996	0.199136	0.182081	0.089952	-0.030373	0.027075	0.068969	0.154557	0.161642	0.027437	0.146525	0.146525	1.635270	1.288366	0.000000	0.000000	0.000000	0.000000	0.000000	0.000000	0.000000	0.000000	0.000000	0.000000	0.000000	0.000000	0.000000	0.000000	0.000000	0.000000	0.000000	0.000000	0.000000	0.000000	0.000000	0.000000
3.110000	-0.032395	-0.287611	0.111042	0.199153	0.182032	0.090291	-0.030285	0.026995	0.069381	0.154527	0.161717	0.027437	0.146525	0.146525	1.635238	1.288369	0.000000	0.000000	0.000000	0.000000	0.000000	0.000000	0.000000	0.000000	0.000000	0.000000	0.000000	0.000000	0.000000	0.000000	0.000000	0.000000	0.000000	0.000000	0.000000	0.000000	0.000000	0.000000
3.115000	-0.032433	-0.287609	0.111089	0.199167	0.181979	0.090636	-0.030195	0.026913	0.069799	0.154492	0.161789	0.027437	0.146525	0.146525	1.635206	1.288371	0.000000	0.000000	0.000000	0.000000	0.000000	0.000000	0.000000	0.000000	0.000000	0.000000	0.000000	0.000000	0.000000	0.000000	0.000000	0.000000	0.000000	0.000000	0.000000	0.000000	0.000000	0.000000
3.120000	-0.032471	-0.287608	0.111139	0.199177	0.181920	0.090988	-0.030104	0.026829	0.070224	0.154452	0.161858	0.027437	0.146525	0.146525	1.635176	1.288372	0.000000	0.000000	0.000000	0.000000	0.000000	0.000000	0.000000	0.000000	0.000000	0.000000	0.000000	0.000000	0.000000	0.000000	0.000000	0.000000	0.000000	0.000000	0.000000	0.000000	0.000000	0.000000
3.125000	-0.032510	-0.287608	0.111189	0.199184	0.181856	0.091346	-0.030013	0.026743	0.070655	0.154408	0.161924	0.027437	0.146525	0.146525	1.635146	1.288374	0.000000	0.000000	0.000000	0.000000	0.000000	0.000000	0.000000	0.000000	0.000000	0.000000	0.000000	0.000000	0.000000	0.000000	0.000000	0.000000	0.000000	0.000000	0.000000	0.000000	0.000000	0.000000
3.130000	-0.032549	-0.287608	0.111242	0.199186	0.181787	0.091710	-0.029921	0.026656	0.071091	0.154358	0.161986	0.027437	0.146525	0.146525	1.635118	1.288376	0.000000	0.000000	0.000000	0.000000	0.000000	0.000000	0.000000	0.000000	0.000000	0.000000	0.000000	0.000000	0.000000	0.000000	0.000000	0.000000	0.000000	0.000000	0.000000	0.000000	0.000000	0.000000
3.135000	-0.032587	-0.287609	0.111296	0.199185	0.181713	0.092080	-0.029829	0.026566	0.071533	0.154303	0.162045	0.027437	0.146525	0.146525	1.635092	1.288377	0.000000	0.000000	0.000000	0.000000	0.000000	0.000000	0.000000	0.000000	0.000000	0.000000	0.000000	0.000000	0.000000	0.000000	0.000000	0.000000	0.000000	0.000000	0.000000	0.000000	0.000000	0.000000
3.140000	-0.032626	-0.287611	0.111352	0.199179	0.181634	0.092454	-0.029736	0.026474	0.071978	0.154244	0.162099	0.027437	0.146525	0.146525	1.635068	1.288379	0.000000	0.000000	0.000000	0.000000	0.000000	0.000000	0.000000	0.000000	0.000000	0.000000	0.000000	0.000000	0.000000	0.000000	0.000000	0.000000	0.000000	0.000000	0.000000	0.000000	0.000000	0.000000
3.145000	-0.032664	-0.287614	0.111410	0.199168	0.181548	0.092834	-0.029643	0.026380	0.072428	0.154179	0.162150	0.027437	0.146525	0.146525	1.635046	1.288380	0.000000	0.000000	0.000000	0.000000	0.000000	0.000000	0.000000	0.000000	0.000000	0.000000	0.000000	0.000000	0.000000	0.000000	0.000000	0.000000	0.000000	0.000000	0.000000	0.000000	0.000000	0.000000
3.150000	-0.032702	-0.287618	0.111470	0.199153	0.181457	0.093218	-0.029551	0.026283	0.072882	0.154108	0.162195	0.027437	0.146525	0.146525	1.635027	1.288381	0.000000	0.000000	0.000000	0.000000	0.000000	0.000000	0.000000	0.000000	0.000000	0.000000	0.000000	0.000000	0.000000	0.000000	0.000000	0.000000	0.000000	0.000000	0.000000	0.000000	0.000000	0.000000
3.155000	-0.032740	-0.287622	0.111531	0.199133	0.181360	0.093605	-0.029459	0.026184	0.073338	0.154032	0.162236	0.027437	0.146525	0.146525	1.635011	1.288382	0.000000	0.000000	0.000000	0.000000	0.000000	0.000000	0.000000	0.000000	0.000000	0.000000	0.000000	0.000000	0.000000	0.000000	0.000000	0.000000	0.000000	0.000000	0.000000	0.000000	0.000000	0.000000
3.160000	-0.032777	-0.287628	0.111595	0.199107	0.181257	0.093997	-0.029367	0.026081	0.073798	0.153950	0.162271	0.027437	0.146525	0.146525	1.634999	1.288383	0.000000	0.000000	0.000000	0.000000	0.000000	0.000000	0.000000	0.000000	0.000000	0.000000	0.000000	0.000000	0.000000	0.000000	0.000000	0.000000	0.000000	0.000000	0.000000	0.000000	0.000000	0.000000
3.165000	-0.032814	-0.287635	0.111661	0.199076	0.181148	0.094392	-0.029277	0.025976	0.074260	0.153863	0.162301	0.027437	0.146525	0.146525	1.634990	1.288383	0.000000	0.000000	0.000000	0.000000	0.000000	0.000000	0.000000	0.000000	0.000000	0.000000	0.000000	0.000000	0.000000	0.000000	0.000000	0.000000	0.000000	0.000000	0.000000	0.000000	0.000000	0.000000
3.170000	-0.032851	-0.287643	0.111729	0.199040	0.181033	0.094790	-0.029187	0.025868	0.074724	0.153769	0.162326	0.027437	0.146525	0.146525	1.634986	1.288383	0.000000	0.000000	0.000000	0.000000	0.000000	0.000000	0.000000	0.000000	0.000000	0.000000	0.000000	0.000000	0.000000	0.000000	0.000000	0.000000	0.000000	0.000000	0.000000	0.000000	0.000000	0.000000
3.175000	-0.032887	-0.287652	0.111799	0.198998	0.180911	0.095191	-0.029098	0.025756	0.075189	0.153670	0.162344	0.027437	0.146525	0.146525	1.634986	1.288383	0.000000	0.000000	0.000000	0.000000	0.000000	0.000000	0.000000	0.000000	0.000000	0.000000	0.000000	0.000000	0.000000	0.000000	0.000000	0.000000	0.000000	0.000000	0.000000	0.000000	0.000000	0.000000
3.180000	-0.032922	-0.287663	0.111871	0.198950	0.180782	0.095594	-0.029011	0.025642	0.075655	0.153564	0.162357	0.027437	0.146525	0.146525	1.634990	1.288383	0.000000	0.000000	0.000000	0.000000	0.000000	0.000000	0.000000	0.000000	0.000000	0.000000	0.000000	0.000000	0.000000	0.000000	0.000000	0.000000	0.000000	0.000000	0.000000	0.000000	0.000000	0.000000
3.185000	-0.032957	-0.287675	0.111945	0.198896	0.180647	0.095999	-0.028925	0.025524	0.076121	0.153452	0.162363	0.027437	0.146525	0.146525	1.634999	1.288382	0.000000	0.000000	0.000000	0.000000	0.000000	0.000000	0.000000	0.000000	0.000000	0.000000	0.000000	0.000000	0.000000	0.000000	0.000000	0.000000	0.000000	0.000000	0.000000	0.000000	0.000000	0.000000
